<svg width="65" height="11" viewBox="0 0 65 11" fill="none" xmlns="http://www.w3.org/2000/svg">
<path d="M1.75488 0.046875V10H0.0458984V0.046875H1.75488ZM7.74316 0.046875L3.69629 5.7207H1.26953L1.03711 4.23047H2.74609L5.64453 0.046875H7.74316ZM5.99316 10L2.77344 5.46094L3.88086 4.1416L8.05078 10H5.99316ZM8.64523 6.38379V6.22656C8.64523 5.69336 8.72271 5.19889 8.87766 4.74316C9.0326 4.28288 9.25591 3.88411 9.54758 3.54688C9.8438 3.20508 10.2038 2.94076 10.6277 2.75391C11.056 2.5625 11.5391 2.4668 12.0769 2.4668C12.6192 2.4668 13.1023 2.5625 13.5261 2.75391C13.9545 2.94076 14.3168 3.20508 14.613 3.54688C14.9092 3.88411 15.1348 4.28288 15.2898 4.74316C15.4447 5.19889 15.5222 5.69336 15.5222 6.22656V6.38379C15.5222 6.91699 15.4447 7.41146 15.2898 7.86719C15.1348 8.32292 14.9092 8.72168 14.613 9.06348C14.3168 9.40072 13.9568 9.66504 13.5329 9.85645C13.1091 10.0433 12.6283 10.1367 12.0905 10.1367C11.5482 10.1367 11.0629 10.0433 10.6345 9.85645C10.2107 9.66504 9.85064 9.40072 9.55441 9.06348C9.25819 8.72168 9.0326 8.32292 8.87766 7.86719C8.72271 7.41146 8.64523 6.91699 8.64523 6.38379ZM10.2927 6.22656V6.38379C10.2927 6.71647 10.3269 7.03092 10.3952 7.32715C10.4636 7.62337 10.5707 7.88314 10.7165 8.10645C10.8624 8.32975 11.0492 8.50521 11.2771 8.63281C11.5049 8.76042 11.7761 8.82422 12.0905 8.82422C12.3959 8.82422 12.6602 8.76042 12.8835 8.63281C13.1114 8.50521 13.2982 8.32975 13.4441 8.10645C13.5899 7.88314 13.697 7.62337 13.7654 7.32715C13.8383 7.03092 13.8747 6.71647 13.8747 6.38379V6.22656C13.8747 5.89844 13.8383 5.58854 13.7654 5.29688C13.697 5.00065 13.5876 4.73861 13.4372 4.51074C13.2914 4.28288 13.1045 4.10514 12.8767 3.97754C12.6534 3.84538 12.3868 3.7793 12.0769 3.7793C11.767 3.7793 11.4981 3.84538 11.2702 3.97754C11.0469 4.10514 10.8624 4.28288 10.7165 4.51074C10.5707 4.73861 10.4636 5.00065 10.3952 5.29688C10.3269 5.58854 10.2927 5.89844 10.2927 6.22656ZM22.2348 5.69336V6.99219H18.4067V5.69336H22.2348ZM18.8852 2.60352V10H17.2377V2.60352H18.8852ZM23.4243 2.60352V10H21.7768V2.60352H23.4243ZM28.8927 2.60352V10H27.2384V2.60352H28.8927ZM31.3195 2.60352V3.90234H24.8527V2.60352H31.3195ZM36.7606 8.5166V4.98926C36.7606 4.72493 36.7128 4.49707 36.6171 4.30566C36.5214 4.11426 36.3755 3.96615 36.1796 3.86133C35.9882 3.75651 35.7466 3.7041 35.455 3.7041C35.1861 3.7041 34.9537 3.74967 34.7577 3.84082C34.5617 3.93197 34.4091 4.05501 34.2997 4.20996C34.1903 4.36491 34.1356 4.54036 34.1356 4.73633H32.495C32.495 4.44466 32.5656 4.16211 32.7069 3.88867C32.8482 3.61523 33.0533 3.37142 33.3221 3.15723C33.591 2.94303 33.9123 2.77441 34.286 2.65137C34.6597 2.52832 35.079 2.4668 35.5438 2.4668C36.0998 2.4668 36.592 2.56022 37.0204 2.74707C37.4533 2.93392 37.7929 3.21647 38.0389 3.59473C38.2896 3.96842 38.4149 4.43783 38.4149 5.00293V8.29102C38.4149 8.62826 38.4377 8.93132 38.4833 9.2002C38.5334 9.46452 38.604 9.69466 38.6952 9.89062V10H37.0067C36.9292 9.82227 36.8677 9.59668 36.8221 9.32324C36.7811 9.04525 36.7606 8.77637 36.7606 8.5166ZM36.9999 5.50195L37.0136 6.52051H35.8309C35.5256 6.52051 35.2567 6.55013 35.0243 6.60938C34.7919 6.66406 34.5982 6.74609 34.4432 6.85547C34.2883 6.96484 34.1721 7.09701 34.0946 7.25195C34.0171 7.4069 33.9784 7.58236 33.9784 7.77832C33.9784 7.97428 34.024 8.1543 34.1151 8.31836C34.2063 8.47786 34.3384 8.60319 34.5116 8.69434C34.6893 8.78548 34.9035 8.83105 35.1542 8.83105C35.4914 8.83105 35.7854 8.7627 36.036 8.62598C36.2912 8.4847 36.4917 8.3138 36.6376 8.11328C36.7834 7.9082 36.8609 7.71452 36.87 7.53223L37.4032 8.26367C37.3485 8.45052 37.2551 8.65104 37.1229 8.86523C36.9908 9.07943 36.8176 9.28451 36.6034 9.48047C36.3938 9.67188 36.1408 9.8291 35.8446 9.95215C35.5529 10.0752 35.2157 10.1367 34.8329 10.1367C34.3498 10.1367 33.9192 10.041 33.5409 9.84961C33.1626 9.65365 32.8664 9.3916 32.6522 9.06348C32.438 8.73079 32.3309 8.35482 32.3309 7.93555C32.3309 7.54362 32.4039 7.19727 32.5497 6.89648C32.7001 6.59115 32.9188 6.33594 33.2059 6.13086C33.4976 5.92578 33.8531 5.77083 34.2723 5.66602C34.6916 5.55664 35.1701 5.50195 35.7079 5.50195H36.9999ZM42.1949 2.60352V10H40.5475V2.60352H42.1949ZM47.0211 2.60352L43.692 7.05371H41.8121L41.5934 5.56348H42.9674L44.9635 2.60352H47.0211ZM45.0934 10L42.8648 6.77344L44.1637 5.83691L47.2604 10H45.0934ZM51.8675 2.60352V10H50.2132V2.60352H51.8675ZM54.2943 2.60352V3.90234H47.8275V2.60352H54.2943ZM56.8985 4.95508H59.0791C59.7172 4.95508 60.2595 5.06217 60.7061 5.27637C61.1527 5.49056 61.4922 5.78906 61.7246 6.17188C61.9616 6.55013 62.0801 6.98307 62.0801 7.4707C62.0801 7.83073 62.014 8.16569 61.8819 8.47559C61.7497 8.78092 61.5537 9.04753 61.294 9.27539C61.0388 9.50326 60.7243 9.68099 60.3506 9.80859C59.9815 9.9362 59.5577 10 59.0791 10H55.8047V2.60352H57.459V8.69434H59.0791C59.4073 8.69434 59.6693 8.63737 59.8653 8.52344C60.0612 8.40951 60.2025 8.26139 60.2891 8.0791C60.3802 7.89681 60.4258 7.70312 60.4258 7.49805C60.4258 7.28841 60.3802 7.09017 60.2891 6.90332C60.2025 6.71647 60.0612 6.5638 59.8653 6.44531C59.6693 6.32682 59.4073 6.26758 59.0791 6.26758H56.8985V4.95508ZM64.9922 2.60352V10H63.3448V2.60352H64.9922Z" fill="#212121"/>
</svg>
