<svg viewBox="0 0 100 50" fill="none" xmlns="http://www.w3.org/2000/svg">
<path fill-rule="evenodd" clip-rule="evenodd" d="M19.6267 0.688905C19.8345 0.253807 20.2847 0 20.7349 0C21.1851 0 21.6353 0.253807 21.8431 0.688905C22.0855 1.08774 22.0855 1.59536 21.8431 2.03046C21.6353 2.46555 21.1851 2.71936 20.7349 2.71936C20.2847 2.71936 19.8691 2.46555 19.6267 2.03046C19.3843 1.63162 19.3843 1.08774 19.6267 0.688905ZM20.7349 7.61421C20.2847 7.61421 19.8345 7.86802 19.6267 8.30312C19.3843 8.73822 19.3843 9.24583 19.6267 9.64467C19.8691 10.0798 20.2847 10.3336 20.7349 10.3336C21.1851 10.3336 21.6353 10.0798 21.8431 9.64467C22.0855 9.20957 22.0855 8.70196 21.8431 8.30312C21.6353 7.86802 21.1851 7.61421 20.7349 7.61421ZM19.6267 15.9173C19.8345 15.4822 20.2847 15.2284 20.7349 15.2284C21.1851 15.2284 21.6353 15.4822 21.8431 15.9173C22.0855 16.3162 22.0855 16.8238 21.8431 17.2589C21.6353 17.694 21.1851 17.9478 20.7349 17.9478C20.2847 17.9478 19.8691 17.694 19.6267 17.2589C19.3843 16.86 19.3843 16.3524 19.6267 15.9173ZM14.6053 18.7455C13.9474 18.7455 13.3586 19.1081 13.047 19.6882C12.7353 20.2683 12.7353 20.9935 13.047 21.5736C13.3586 22.1537 13.982 22.5163 14.6053 22.5163C15.2633 22.5163 15.852 22.1537 16.1637 21.5736C16.4754 20.9935 16.4754 20.2683 16.1637 19.6882C15.852 19.1081 15.2633 18.7455 14.6053 18.7455ZM20.7349 21.211C19.7653 21.211 18.8649 21.7549 18.3454 22.6613C17.8606 23.5315 17.8606 24.6555 18.3454 25.5257C18.8302 26.3959 19.7306 26.976 20.7349 26.976C21.7045 26.976 22.6049 26.4322 23.1244 25.5257C23.6092 24.6555 23.6092 23.5315 23.1244 22.6613C22.6396 21.7549 21.7045 21.211 20.7349 21.211ZM27.0722 11.6026C26.622 11.6026 26.1718 11.8564 25.964 12.2915C25.7216 12.7266 25.7216 13.2342 25.964 13.6331C26.2065 14.0682 26.622 14.322 27.0722 14.322C27.5224 14.322 27.9726 14.0682 28.1804 13.6331C28.4228 13.198 28.4228 12.6904 28.1804 12.2915C27.9726 11.8564 27.5224 11.6026 27.0722 11.6026ZM25.964 4.67731C26.1718 4.24221 26.622 3.9884 27.0722 3.9884C27.5224 3.9884 27.9726 4.24221 28.1804 4.67731C28.4228 5.07615 28.4228 5.58376 28.1804 6.01886C27.9726 6.45396 27.5224 6.70777 27.0722 6.70777C26.622 6.70777 26.2065 6.45396 25.964 6.01886C25.7216 5.62002 25.7216 5.11241 25.964 4.67731ZM14.6053 11.4213C14.1551 11.4213 13.7049 11.6751 13.4971 12.1102C13.2547 12.5453 13.2547 13.053 13.4971 13.4518C13.7395 13.8869 14.1551 14.1407 14.6053 14.1407C15.0555 14.1407 15.5057 13.8869 15.7135 13.4518C15.9559 13.0167 15.9559 12.5091 15.7135 12.1102C15.5057 11.6751 15.0555 11.4213 14.6053 11.4213ZM13.4971 4.49603C13.7049 4.06094 14.1551 3.80713 14.6053 3.80713C15.0555 3.80713 15.5057 4.06094 15.7135 4.49603C15.9559 4.89487 15.9559 5.40249 15.7135 5.83758C15.5057 6.27268 15.0555 6.52649 14.6053 6.52649C14.1551 6.52649 13.7395 6.27268 13.4971 5.83758C13.2547 5.43874 13.2547 4.93113 13.4971 4.49603ZM8.02555 7.79553C7.57536 7.79553 7.12516 8.04934 6.91738 8.48444C6.67497 8.91954 6.67497 9.42715 6.91738 9.82599C7.15979 10.2611 7.57536 10.5149 8.02555 10.5149C8.47574 10.5149 8.92594 10.2611 9.13372 9.82599C9.37613 9.39089 9.37613 8.88328 9.13372 8.48444C8.92594 8.04934 8.51037 7.79553 8.02555 7.79553ZM32.3014 8.48444C32.5092 8.04934 32.9594 7.79553 33.4096 7.79553C33.8598 7.79553 34.3099 8.04934 34.5177 8.48444C34.7601 8.88328 34.7601 9.39089 34.5177 9.82599C34.3099 10.2611 33.8598 10.5149 33.4096 10.5149C32.9594 10.5149 32.5438 10.2611 32.3014 9.82599C32.059 9.42715 32.059 8.91954 32.3014 8.48444ZM14.6053 26.2147C13.9474 26.2147 13.3586 26.5773 13.047 27.1574C12.7353 27.7375 12.7353 28.4627 13.047 29.0428C13.3586 29.6229 13.982 29.9855 14.6053 29.9855C15.2633 29.9855 15.852 29.6229 16.1637 29.0428C16.4754 28.4627 16.4754 27.7375 16.1637 27.1574C15.852 26.5773 15.2633 26.2147 14.6053 26.2147ZM13.047 34.6265C13.3586 34.0464 13.9474 33.6838 14.6053 33.6838C15.2633 33.6838 15.852 34.0102 16.1637 34.6265C16.4754 35.2067 16.4754 35.9318 16.1637 36.512C15.852 37.0921 15.2633 37.4547 14.6053 37.4547C13.982 37.4547 13.3586 37.0921 13.047 36.512C12.7353 35.9318 12.7353 35.2067 13.047 34.6265ZM14.6053 41.1168C13.9474 41.1168 13.3586 41.4794 13.047 42.0595C12.7353 42.6396 12.7353 43.3648 13.047 43.9449C13.3586 44.5251 13.982 44.8876 14.6053 44.8876C15.2633 44.8876 15.852 44.5251 16.1637 43.9449C16.4754 43.3648 16.4754 42.6396 16.1637 42.0595C15.852 41.4794 15.2633 41.1168 14.6053 41.1168ZM6.4672 15.9536C6.77887 15.3735 7.36758 15.0109 8.02556 15.0109C8.68353 15.0109 9.27225 15.3735 9.58392 15.9536C9.89559 16.5338 9.89559 17.2589 9.58392 17.8391C9.27225 18.4192 8.68353 18.7818 8.02556 18.7818C7.40221 18.7818 6.77887 18.4192 6.4672 17.8391C6.15552 17.2589 6.15552 16.5338 6.4672 15.9536ZM8.02556 22.48C7.36758 22.48 6.77887 22.8426 6.4672 23.4228C6.15552 24.0029 6.15552 24.7281 6.4672 25.3082C6.77887 25.8883 7.40221 26.2509 8.02556 26.2509C8.68353 26.2509 9.27225 25.8883 9.58392 25.3082C9.89559 24.7281 9.89559 24.0029 9.58392 23.4228C9.27225 22.8426 8.68353 22.48 8.02556 22.48ZM6.4672 30.8919C6.77887 30.3118 7.36758 29.9492 8.02556 29.9492C8.68353 29.9492 9.27225 30.3118 9.58392 30.8919C9.89559 31.4721 9.89559 32.1972 9.58392 32.7774C9.27225 33.3575 8.68353 33.7201 8.02556 33.7201C7.40221 33.7201 6.77887 33.3575 6.4672 32.7774C6.15552 32.1972 6.15552 31.4721 6.4672 30.8919ZM8.02556 37.3822C7.36758 37.3822 6.77887 37.7447 6.4672 38.3249C6.15552 38.905 6.15552 39.6302 6.4672 40.2103C6.77887 40.7904 7.40221 41.153 8.02556 41.153C8.68353 41.153 9.27225 40.7904 9.58392 40.2103C9.89559 39.6302 9.89559 38.905 9.58392 38.3249C9.27225 37.7447 8.68353 37.3822 8.02556 37.3822ZM0.233754 12.1102C0.545427 11.5301 1.13414 11.1675 1.79212 11.1675C2.45009 11.1675 3.03881 11.5301 3.35048 12.1102C3.66215 12.6903 3.66215 13.4155 3.35048 13.9956C3.03881 14.5758 2.45009 14.9384 1.79212 14.9384C1.16877 14.9384 0.545427 14.5758 0.233754 13.9956C-0.0779181 13.4155 -0.0779181 12.6903 0.233754 12.1102ZM1.79212 18.6367C1.13414 18.6367 0.545427 18.9993 0.233754 19.5795C-0.0779181 20.1596 -0.0779181 20.8847 0.233754 21.4649C0.545427 22.045 1.16877 22.4076 1.79212 22.4076C2.45009 22.4076 3.03881 22.045 3.35048 21.4649C3.66215 20.8847 3.66215 20.1596 3.35048 19.5795C3.03881 18.9993 2.45009 18.6367 1.79212 18.6367ZM0.233754 27.0486C0.545427 26.4685 1.13414 26.1059 1.79212 26.1059C2.45009 26.1059 3.03881 26.4685 3.35048 27.0486C3.66215 27.6288 3.66215 28.3539 3.35048 28.9341C3.03881 29.5142 2.45009 29.8768 1.79212 29.8768C1.16877 29.8768 0.545427 29.5142 0.233754 28.9341C-0.0779181 28.3539 -0.0779181 27.6288 0.233754 27.0486ZM1.79212 33.575C1.13414 33.575 0.545427 33.9376 0.233754 34.5177C-0.0779181 35.0979 -0.0779181 35.823 0.233754 36.4032C0.545427 36.9833 1.16877 37.3459 1.79212 37.3459C2.45009 37.3459 3.03881 36.9833 3.35048 36.4032C3.66215 35.823 3.66215 35.0979 3.35048 34.5177C3.03881 33.9376 2.45009 33.575 1.79212 33.575ZM18.3454 30.3481C18.8649 29.4416 19.7653 28.8977 20.7349 28.8977C21.7045 28.8977 22.6396 29.4416 23.1244 30.3481C23.6092 31.2183 23.6092 32.3423 23.1244 33.2125C22.6049 34.1189 21.7045 34.6628 20.7349 34.6628C19.7306 34.6628 18.8302 34.0826 18.3454 33.2125C17.8606 32.3423 17.8606 31.2183 18.3454 30.3481ZM20.7349 36.5482C19.7653 36.5482 18.8649 37.0921 18.3454 37.9986C17.8606 38.8688 17.8606 39.9928 18.3454 40.863C18.8302 41.7332 19.7306 42.3133 20.7349 42.3133C21.7045 42.3133 22.6049 41.7694 23.1244 40.863C23.6092 39.9928 23.6092 38.8688 23.1244 37.9986C22.6396 37.0921 21.7045 36.5482 20.7349 36.5482ZM18.3454 45.6853C18.8649 44.7788 19.7653 44.235 20.7349 44.235C21.7045 44.235 22.6396 44.7788 23.1244 45.6853C23.6092 46.5555 23.6092 47.6795 23.1244 48.5497C22.6049 49.4561 21.7045 50 20.7349 50C19.7306 50 18.8302 49.4199 18.3454 48.5497C17.8606 47.6795 17.8606 46.5555 18.3454 45.6853ZM27.0722 17.3677C26.1026 17.3677 25.2022 17.9116 24.6827 18.818C24.1979 19.6882 24.1979 20.8122 24.6827 21.6824C25.1675 22.5526 26.0679 23.1327 27.0722 23.1327C28.0419 23.1327 28.9422 22.5889 29.4617 21.6824C29.9465 20.8122 29.9465 19.6882 29.4617 18.818C28.9422 17.9116 28.0419 17.3677 27.0722 17.3677ZM24.6827 26.5047C25.2022 25.5983 26.1026 25.0544 27.0722 25.0544C28.0419 25.0544 28.9422 25.5983 29.4617 26.5047C29.9465 27.3749 29.9465 28.4989 29.4617 29.3691C28.9422 30.2756 28.0419 30.8195 27.0722 30.8195C26.0679 30.8195 25.1675 30.2393 24.6827 29.3691C24.1979 28.4989 24.1979 27.3749 24.6827 26.5047ZM27.0722 32.7048C26.1026 32.7048 25.2022 33.2487 24.6827 34.1551C24.1979 35.0253 24.1979 36.1493 24.6827 37.0195C25.1675 37.8897 26.0679 38.4698 27.0722 38.4698C28.0419 38.4698 28.9422 37.926 29.4617 37.0195C29.9465 36.1493 29.9465 35.0253 29.4617 34.1551C28.9422 33.2849 28.0419 32.7048 27.0722 32.7048ZM24.6827 41.8419C25.2022 40.9355 26.1026 40.3916 27.0722 40.3916C28.0419 40.3916 28.9422 40.9355 29.4617 41.8419C29.9465 42.7121 29.9465 43.8361 29.4617 44.7063C28.9422 45.6128 28.0419 46.1566 27.0722 46.1566C26.0679 46.1566 25.1675 45.5765 24.6827 44.7063C24.1979 43.8361 24.1979 42.7121 24.6827 41.8419ZM33.4096 13.7056C32.4399 13.7056 31.5395 14.2495 31.0201 15.1559C30.5353 16.0261 30.5353 17.1501 31.0201 18.0203C31.5049 18.8905 32.4053 19.4706 33.4096 19.4706C34.3792 19.4706 35.2796 18.9268 35.7991 18.0203C36.2839 17.1501 36.2839 16.0261 35.7991 15.1559C35.2796 14.2495 34.3792 13.7056 33.4096 13.7056ZM31.0201 22.8427C31.5395 21.9362 32.4399 21.3923 33.4096 21.3923C34.3792 21.3923 35.2796 21.9362 35.7991 22.8427C36.2839 23.7129 36.2839 24.8369 35.7991 25.7071C35.2796 26.6135 34.3792 27.1574 33.4096 27.1574C32.4053 27.1574 31.5049 26.5772 31.0201 25.7071C30.5353 24.8369 30.5353 23.7129 31.0201 22.8427ZM33.4096 29.0791C32.4399 29.0791 31.5395 29.6229 31.0201 30.5294C30.5353 31.3996 30.5353 32.5236 31.0201 33.3938C31.5049 34.264 32.4053 34.8441 33.4096 34.8441C34.3792 34.8441 35.2796 34.3002 35.7991 33.3938C36.2839 32.5236 36.2839 31.3996 35.7991 30.5294C35.2796 29.6229 34.3792 29.0791 33.4096 29.0791ZM31.0201 38.1798C31.5395 37.2734 32.4399 36.7295 33.4096 36.7295C34.3792 36.7295 35.2796 37.2734 35.7991 38.1798C36.2839 39.05 36.2839 40.174 35.7991 41.0442C35.2796 41.9507 34.3792 42.4945 33.4096 42.4945C32.4053 42.4945 31.5049 41.9144 31.0201 41.0442C30.5353 40.174 30.5353 39.05 31.0201 38.1798ZM39.7469 9.86222C38.7772 9.86222 37.8769 10.4061 37.3574 11.3125C36.8726 12.1827 36.8726 13.3067 37.3574 14.1769C37.8422 15.0471 38.7426 15.6273 39.7469 15.6273C40.7165 15.6273 41.6169 15.0834 42.1364 14.1769C42.6212 13.3067 42.6212 12.1827 42.1364 11.3125C41.6169 10.4423 40.7165 9.86222 39.7469 9.86222ZM37.3574 18.9993C37.8769 18.0928 38.7772 17.5489 39.7469 17.5489C40.7165 17.5489 41.6169 18.0928 42.1364 18.9993C42.6212 19.8695 42.6212 20.9935 42.1364 21.8637C41.6169 22.7701 40.7165 23.314 39.7469 23.314C38.7426 23.314 37.8422 22.7339 37.3574 21.8637C36.8726 20.9935 36.8726 19.8695 37.3574 18.9993ZM39.7469 25.2357C38.7772 25.2357 37.8769 25.7796 37.3574 26.686C36.8726 27.5562 36.8726 28.6802 37.3574 29.5504C37.8422 30.4206 38.7426 31.0007 39.7469 31.0007C40.7165 31.0007 41.6169 30.4569 42.1364 29.5504C42.6212 28.6802 42.6212 27.5562 42.1364 26.686C41.6169 25.7796 40.7165 25.2357 39.7469 25.2357ZM37.3574 34.3365C37.8769 33.43 38.7772 32.8861 39.7469 32.8861C40.7165 32.8861 41.6169 33.4663 42.1364 34.3365C42.6212 35.2067 42.6212 36.3307 42.1364 37.2009C41.6169 38.1073 40.7165 38.6512 39.7469 38.6512C38.7426 38.6512 37.8422 38.071 37.3574 37.2009C36.8726 36.3307 36.8726 35.2067 37.3574 34.3365Z" fill="#ED4848"/>
<path fill-rule="evenodd" clip-rule="evenodd" d="M74.7686 15.1318H77.1927V32.1274C77.1927 33.6277 78.0406 33.6268 78.8121 33.626L78.8657 33.626H86.7185V36.1845H78.5243C76.6806 36.1845 74.7686 35.6728 74.7686 32.4564V15.1318ZM62.1017 15.1318H64.6965L71.4567 36.1845H68.6229L67.0182 30.6289H59.5751L57.868 36.1845H55L62.1017 15.1318ZM66.3012 28.1435L63.3991 18.933L60.3945 28.1435H66.3012ZM100 15.1318H86.1381V17.6903H91.7716V36.1845H94.2299V17.6903H100V15.1318Z" fill="#000"/>
</svg>
