<svg width="75" height="14" viewBox="0 0 75 14" fill="none" xmlns="http://www.w3.org/2000/svg">
<path d="M7.88672 1.04688V11H6.17773V2.41406H1.75488V11H0.0458984V1.04688H7.88672ZM9.75266 7.38379V7.22656C9.75266 6.69336 9.83013 6.19889 9.98508 5.74316C10.14 5.28288 10.3633 4.88411 10.655 4.54688C10.9512 4.20508 11.3112 3.94076 11.7351 3.75391C12.1635 3.5625 12.6465 3.4668 13.1843 3.4668C13.7266 3.4668 14.2097 3.5625 14.6335 3.75391C15.0619 3.94076 15.4242 4.20508 15.7204 4.54688C16.0167 4.88411 16.2422 5.28288 16.3972 5.74316C16.5521 6.19889 16.6296 6.69336 16.6296 7.22656V7.38379C16.6296 7.91699 16.5521 8.41146 16.3972 8.86719C16.2422 9.32292 16.0167 9.72168 15.7204 10.0635C15.4242 10.4007 15.0642 10.665 14.6404 10.8564C14.2165 11.0433 13.7357 11.1367 13.198 11.1367C12.6557 11.1367 12.1703 11.0433 11.7419 10.8564C11.3181 10.665 10.9581 10.4007 10.6618 10.0635C10.3656 9.72168 10.14 9.32292 9.98508 8.86719C9.83013 8.41146 9.75266 7.91699 9.75266 7.38379ZM11.4001 7.22656V7.38379C11.4001 7.71647 11.4343 8.03092 11.5027 8.32715C11.571 8.62337 11.6781 8.88314 11.8239 9.10645C11.9698 9.32975 12.1566 9.50521 12.3845 9.63281C12.6124 9.76042 12.8835 9.82422 13.198 9.82422C13.5033 9.82422 13.7676 9.76042 13.9909 9.63281C14.2188 9.50521 14.4057 9.32975 14.5515 9.10645C14.6973 8.88314 14.8044 8.62337 14.8728 8.32715C14.9457 8.03092 14.9821 7.71647 14.9821 7.38379V7.22656C14.9821 6.89844 14.9457 6.58854 14.8728 6.29688C14.8044 6.00065 14.695 5.73861 14.5446 5.51074C14.3988 5.28288 14.212 5.10514 13.9841 4.97754C13.7608 4.84538 13.4942 4.7793 13.1843 4.7793C12.8744 4.7793 12.6055 4.84538 12.3777 4.97754C12.1543 5.10514 11.9698 5.28288 11.8239 5.51074C11.6781 5.73861 11.571 6.00065 11.5027 6.29688C11.4343 6.58854 11.4001 6.89844 11.4001 7.22656ZM19.9448 5.02539V13.8438H18.2973V3.60352H19.8149L19.9448 5.02539ZM24.7641 7.2334V7.37695C24.7641 7.91471 24.7003 8.41374 24.5727 8.87402C24.4496 9.32975 24.2651 9.72852 24.019 10.0703C23.7774 10.4076 23.4789 10.6696 23.1235 10.8564C22.768 11.0433 22.3579 11.1367 21.893 11.1367C21.4327 11.1367 21.0294 11.0524 20.683 10.8838C20.3412 10.7106 20.0519 10.4668 19.8149 10.1523C19.5779 9.83789 19.3865 9.46875 19.2407 9.04492C19.0994 8.61654 18.9991 8.14714 18.9399 7.63672V7.08301C18.9991 6.54069 19.0994 6.0485 19.2407 5.60645C19.3865 5.16439 19.5779 4.78385 19.8149 4.46484C20.0519 4.14583 20.3412 3.89974 20.683 3.72656C21.0248 3.55339 21.4236 3.4668 21.8793 3.4668C22.3442 3.4668 22.7566 3.55794 23.1166 3.74023C23.4767 3.91797 23.7797 4.17318 24.0258 4.50586C24.2719 4.83398 24.4565 5.23047 24.5795 5.69531C24.7026 6.1556 24.7641 6.66829 24.7641 7.2334ZM23.1166 7.37695V7.2334C23.1166 6.8916 23.0847 6.57487 23.0209 6.2832C22.9571 5.98698 22.8569 5.72721 22.7202 5.50391C22.5834 5.2806 22.408 5.10742 22.1938 4.98438C21.9842 4.85677 21.7312 4.79297 21.435 4.79297C21.1433 4.79297 20.8927 4.8431 20.683 4.94336C20.4734 5.03906 20.298 5.1735 20.1567 5.34668C20.0154 5.51986 19.906 5.72266 19.8286 5.95508C19.7511 6.18294 19.6964 6.43132 19.6645 6.7002V8.02637C19.7192 8.35449 19.8126 8.65527 19.9448 8.92871C20.0769 9.20215 20.2638 9.4209 20.5053 9.58496C20.7514 9.74447 21.0659 9.82422 21.4487 9.82422C21.7449 9.82422 21.9978 9.76042 22.2075 9.63281C22.4171 9.50521 22.588 9.32975 22.7202 9.10645C22.8569 8.87858 22.9571 8.61654 23.0209 8.32031C23.0847 8.02409 23.1166 7.70964 23.1166 7.37695ZM29.4259 3.60352V11H27.7716V3.60352H29.4259ZM31.8527 3.60352V4.90234H25.3859V3.60352H31.8527ZM41.5116 7.39062V7.53418C41.5116 8.05827 41.4524 8.54134 41.3339 8.9834C41.2199 9.4209 41.049 9.80143 40.8212 10.125C40.5933 10.4486 40.3108 10.6992 39.9735 10.877C39.6408 11.0547 39.2535 11.1436 38.8114 11.1436C38.424 11.1436 38.0868 11.0775 37.7997 10.9453C37.5126 10.8132 37.271 10.6286 37.0751 10.3916C36.8791 10.1501 36.7219 9.86751 36.6034 9.54395C36.4849 9.21582 36.3983 8.85579 36.3436 8.46387V6.32422C36.3983 5.90495 36.4826 5.52214 36.5966 5.17578C36.7151 4.82487 36.8723 4.52181 37.0682 4.2666C37.2688 4.01139 37.5103 3.81543 37.7929 3.67871C38.0754 3.53743 38.4104 3.4668 38.7977 3.4668C39.1532 3.4668 39.4745 3.5306 39.7616 3.6582C40.0487 3.78125 40.3016 3.95898 40.5204 4.19141C40.7391 4.41927 40.9214 4.69499 41.0673 5.01855C41.2131 5.33757 41.3225 5.69759 41.3954 6.09863C41.4729 6.49967 41.5116 6.93034 41.5116 7.39062ZM39.8641 7.53418V7.39062C39.8641 7.10352 39.8459 6.83008 39.8095 6.57031C39.773 6.31055 39.716 6.07357 39.6386 5.85938C39.5656 5.64062 39.4699 5.4515 39.3514 5.29199C39.233 5.12793 39.0894 5.0026 38.9208 4.91602C38.7567 4.82487 38.5653 4.7793 38.3466 4.7793C38.0503 4.7793 37.8042 4.82943 37.6083 4.92969C37.4169 5.02539 37.271 5.16211 37.1708 5.33984C37.0751 5.51302 37.0136 5.71354 36.9862 5.94141V8.85352C37.0181 9.04492 37.0842 9.21354 37.1845 9.35938C37.2893 9.50521 37.4374 9.62142 37.6288 9.70801C37.8202 9.79004 38.064 9.83105 38.3602 9.83105C38.6337 9.83105 38.8638 9.77409 39.0507 9.66016C39.2421 9.54167 39.397 9.3776 39.5155 9.16797C39.6386 8.95833 39.7274 8.71452 39.7821 8.43652C39.8368 8.15853 39.8641 7.85775 39.8641 7.53418ZM32.4471 7.53418V7.39062C32.4471 6.93034 32.4836 6.49967 32.5565 6.09863C32.6294 5.69759 32.7388 5.33757 32.8846 5.01855C33.035 4.69499 33.2196 4.41927 33.4384 4.19141C33.6571 3.95898 33.91 3.78125 34.1971 3.6582C34.4843 3.5306 34.8055 3.4668 35.161 3.4668C35.5438 3.4668 35.8742 3.53743 36.1522 3.67871C36.4302 3.81543 36.6649 4.01139 36.8563 4.2666C37.0523 4.52181 37.2072 4.82487 37.3212 5.17578C37.4397 5.52214 37.5262 5.90495 37.5809 6.32422V8.38184C37.5308 8.78288 37.4465 9.15202 37.328 9.48926C37.2095 9.8265 37.0546 10.1182 36.8632 10.3643C36.6718 10.6104 36.4348 10.8018 36.1522 10.9385C35.8697 11.0752 35.5347 11.1436 35.1473 11.1436C34.7098 11.1436 34.3225 11.0547 33.9852 10.877C33.648 10.6992 33.3654 10.4486 33.1376 10.125C32.9097 9.80143 32.7365 9.4209 32.618 8.9834C32.5041 8.54134 32.4471 8.05827 32.4471 7.53418ZM34.0946 7.39062V7.53418C34.0946 7.85775 34.1197 8.15853 34.1698 8.43652C34.2245 8.71452 34.3088 8.95833 34.4227 9.16797C34.5367 9.37305 34.6871 9.53483 34.8739 9.65332C35.0608 9.77181 35.2909 9.83105 35.5643 9.83105C35.8651 9.83105 36.1112 9.78548 36.3026 9.69434C36.494 9.60319 36.6399 9.47786 36.7401 9.31836C36.8449 9.15885 36.9133 8.97656 36.9452 8.77148V5.94141C36.9179 5.71354 36.854 5.51302 36.7538 5.33984C36.6535 5.16211 36.5077 5.02539 36.3163 4.92969C36.1249 4.82943 35.8788 4.7793 35.578 4.7793C35.3046 4.7793 35.0721 4.84766 34.8807 4.98438C34.6939 5.12109 34.5412 5.31022 34.4227 5.55176C34.3088 5.78874 34.2245 6.06673 34.1698 6.38574C34.1197 6.7002 34.0946 7.03516 34.0946 7.39062ZM36.118 13.8438V0.5H37.7723V13.8438H36.118ZM42.8922 7.38379V7.22656C42.8922 6.69336 42.9697 6.19889 43.1246 5.74316C43.2796 5.28288 43.5029 4.88411 43.7945 4.54688C44.0908 4.20508 44.4508 3.94076 44.8746 3.75391C45.303 3.5625 45.7861 3.4668 46.3238 3.4668C46.8661 3.4668 47.3492 3.5625 47.773 3.75391C48.2014 3.94076 48.5637 4.20508 48.86 4.54688C49.1562 4.88411 49.3818 5.28288 49.5367 5.74316C49.6917 6.19889 49.7691 6.69336 49.7691 7.22656V7.38379C49.7691 7.91699 49.6917 8.41146 49.5367 8.86719C49.3818 9.32292 49.1562 9.72168 48.86 10.0635C48.5637 10.4007 48.2037 10.665 47.7799 10.8564C47.3561 11.0433 46.8753 11.1367 46.3375 11.1367C45.7952 11.1367 45.3098 11.0433 44.8814 10.8564C44.4576 10.665 44.0976 10.4007 43.8014 10.0635C43.5051 9.72168 43.2796 9.32292 43.1246 8.86719C42.9697 8.41146 42.8922 7.91699 42.8922 7.38379ZM44.5396 7.22656V7.38379C44.5396 7.71647 44.5738 8.03092 44.6422 8.32715C44.7105 8.62337 44.8176 8.88314 44.9635 9.10645C45.1093 9.32975 45.2962 9.50521 45.524 9.63281C45.7519 9.76042 46.023 9.82422 46.3375 9.82422C46.6428 9.82422 46.9072 9.76042 47.1305 9.63281C47.3583 9.50521 47.5452 9.32975 47.691 9.10645C47.8369 8.88314 47.9439 8.62337 48.0123 8.32715C48.0852 8.03092 48.1217 7.71647 48.1217 7.38379V7.22656C48.1217 6.89844 48.0852 6.58854 48.0123 6.29688C47.9439 6.00065 47.8346 5.73861 47.6842 5.51074C47.5383 5.28288 47.3515 5.10514 47.1236 4.97754C46.9003 4.84538 46.6337 4.7793 46.3238 4.7793C46.0139 4.7793 45.7451 4.84538 45.5172 4.97754C45.2939 5.10514 45.1093 5.28288 44.9635 5.51074C44.8176 5.73861 44.7105 6.00065 44.6422 6.29688C44.5738 6.58854 44.5396 6.89844 44.5396 7.22656ZM56.2904 3.60352V4.91602H52.681V3.60352H56.2904ZM57.5823 3.60352V11H55.9349V3.60352H57.5823ZM52.2777 3.60352H53.9046L53.7064 7.26074C53.679 7.80306 53.6243 8.28158 53.5423 8.69629C53.4648 9.10645 53.36 9.45964 53.2279 9.75586C53.0957 10.0475 52.9339 10.2845 52.7425 10.4668C52.5511 10.6491 52.3278 10.7835 52.0726 10.8701C51.8174 10.9567 51.5303 11 51.2113 11H50.6986L50.6917 9.64648L50.9515 9.62598C51.1201 9.6123 51.2659 9.56901 51.389 9.49609C51.512 9.41862 51.6168 9.30924 51.7034 9.16797C51.7946 9.02669 51.8675 8.8444 51.9222 8.62109C51.9814 8.39779 52.027 8.13346 52.0589 7.82812C52.0954 7.52279 52.1227 7.16732 52.1409 6.76172L52.2777 3.60352ZM61.3145 8.59375L64.2198 3.60352H65.8672V11H64.2198V6.00293L61.3145 11H59.667V3.60352H61.3145V8.59375ZM67.5759 7.38379V7.22656C67.5759 6.69336 67.6534 6.19889 67.8084 5.74316C67.9633 5.28288 68.1866 4.88411 68.4783 4.54688C68.7745 4.20508 69.1345 3.94076 69.5584 3.75391C69.9867 3.5625 70.4698 3.4668 71.0076 3.4668C71.5499 3.4668 72.033 3.5625 72.4568 3.75391C72.8852 3.94076 73.2475 4.20508 73.5437 4.54688C73.8399 4.88411 74.0655 5.28288 74.2205 5.74316C74.3754 6.19889 74.4529 6.69336 74.4529 7.22656V7.38379C74.4529 7.91699 74.3754 8.41146 74.2205 8.86719C74.0655 9.32292 73.8399 9.72168 73.5437 10.0635C73.2475 10.4007 72.8875 10.665 72.4636 10.8564C72.0398 11.0433 71.559 11.1367 71.0212 11.1367C70.4789 11.1367 69.9936 11.0433 69.5652 10.8564C69.1414 10.665 68.7813 10.4007 68.4851 10.0635C68.1889 9.72168 67.9633 9.32292 67.8084 8.86719C67.6534 8.41146 67.5759 7.91699 67.5759 7.38379ZM69.2234 7.22656V7.38379C69.2234 7.71647 69.2576 8.03092 69.3259 8.32715C69.3943 8.62337 69.5014 8.88314 69.6472 9.10645C69.7931 9.32975 69.9799 9.50521 70.2078 9.63281C70.4356 9.76042 70.7068 9.82422 71.0212 9.82422C71.3266 9.82422 71.5909 9.76042 71.8142 9.63281C72.0421 9.50521 72.2289 9.32975 72.3748 9.10645C72.5206 8.88314 72.6277 8.62337 72.6961 8.32715C72.769 8.03092 72.8054 7.71647 72.8054 7.38379V7.22656C72.8054 6.89844 72.769 6.58854 72.6961 6.29688C72.6277 6.00065 72.5183 5.73861 72.3679 5.51074C72.2221 5.28288 72.0352 5.10514 71.8074 4.97754C71.5841 4.84538 71.3175 4.7793 71.0076 4.7793C70.6977 4.7793 70.4288 4.84538 70.2009 4.97754C69.9776 5.10514 69.7931 5.28288 69.6472 5.51074C69.5014 5.73861 69.3943 6.00065 69.3259 6.29688C69.2576 6.58854 69.2234 6.89844 69.2234 7.22656Z" fill="#212121"/>
</svg>
