<svg aria-hidden="true" style="position: absolute; width: 0; height: 0; overflow: hidden;" version="1.1" xmlns="http://www.w3.org/2000/svg" xmlns:xlink="http://www.w3.org/1999/xlink">
<defs>
<symbol id="tarelka" viewBox="0 0 32 32">
<path fill="#212121" style="fill: var(--color1, #212121)" d="M30.629 21.943l-8.229-8.229 0.914-4.571h0.914c1.179-0.1 2.098-1.082 2.098-2.278 0-1.262-1.023-2.286-2.286-2.286s-2.286 1.023-2.286 2.286c0 0.328 0.069 0.639 0.193 0.921l-0.006-0.015-5.029 0.457-7.771-8.229h-0.914l-1.371 1.829v0.457l0.457 0.914c-1.11 2.049-1.762 4.486-1.762 7.076 0 4.209 1.723 8.015 4.503 10.751l0.002 0.002v6.857h-6.4c-1.371 0-2.743 0.914-2.743 2.743v0.914l0.914 0.457h24.229l0.457-0.457v-0.914c0-1.829-0.914-2.743-2.286-2.743h-6.4v-2.743c0.748 0.132 1.61 0.207 2.49 0.207 2.787 0 5.398-0.756 7.638-2.074l-0.071 0.038 0.457 0.914 0.457 0.457 1.829-1.829v-0.914zM23.314 6.4c0.133-0.068 0.291-0.108 0.457-0.108 0.565 0 1.022 0.458 1.022 1.022 0 0.398-0.227 0.743-0.559 0.912l-0.006 0.003c-0.133 0.068-0.291 0.108-0.457 0.108-0.565 0-1.022-0.458-1.022-1.022 0-0.398 0.227-0.743 0.559-0.912l0.006-0.003zM21.943 9.6l-0.457 3.2-1.371-1.371 1.829-1.829zM21.486 8.686l-1.829 2.286-1.829-1.829 3.657-0.457zM24.229 28.8c0.457 0 1.371 0.914 1.371 1.829v0.457h-23.314v-0.457c0-0.914 0.457-1.829 1.371-1.829h20.571zM16.457 26.514v1.371h-5.029v-1.371h5.029zM11.429 25.6v-4.114c0-1.371 0.914-2.286 2.286-2.286 1.829 0 2.743 0.914 2.743 2.286v4.114h-5.029zM17.829 23.771v-2.286c0-1.829-1.829-3.2-4.114-3.2-1.371 0-2.286 0.457-3.2 1.829-4.114-4.571-5.029-10.971-2.286-16l18.743 18.743c-2.743 1.371-6.4 1.829-9.143 0.914zM28.8 23.314l-0.457-0.914-20.571-20.571 0.914-0.457 21.029 21.029-0.914 0.914z"></path>
<path fill="#2196f3" style="fill: var(--color2, #2196f3)" d="M13.714 20.114c-0.567 0.318-0.943 0.915-0.943 1.6s0.377 1.282 0.934 1.595l0.009 0.005c0.884 0 1.6-0.716 1.6-1.6s-0.716-1.6-1.6-1.6v0zM14.171 22.4c-0.067 0.034-0.145 0.054-0.229 0.054-0.282 0-0.511-0.229-0.511-0.511 0-0.199 0.114-0.371 0.28-0.456l0.003-0.001c0.067-0.034 0.145-0.054 0.229-0.054 0.282 0 0.511 0.229 0.511 0.511 0 0.199-0.114 0.371-0.28 0.456l-0.003 0.001z"></path>
</symbol>
<symbol id="astronaut" viewBox="0 0 32 32">
<path fill="#2196f3" style="fill: var(--color2, #2196f3)" d="M32 4.571l-0.457-0.457-1.829-0.457-0.914-1.371h-0.914l-0.914 1.371-1.829 0.457c-0.067-0.034-0.145-0.054-0.229-0.054-0.282 0-0.511 0.229-0.511 0.511 0 0.199 0.114 0.371 0.28 0.456l0.003 0.001 1.371 1.371-0.457 1.829c-0.034 0.067-0.054 0.145-0.054 0.229 0 0.282 0.229 0.511 0.511 0.511 0.199 0 0.371-0.114 0.456-0.28l0.001-0.003 1.829-0.914 1.829 0.914c0.252 0 0.457-0.205 0.457-0.457v0-1.829l1.371-1.371v-0.457zM29.714 5.943l-0.457 0.457 0.457 0.914-1.371-0.457c-0.066-0.038-0.144-0.061-0.229-0.061s-0.163 0.023-0.231 0.062l0.002-0.001-0.914 0.457 0.457-0.914-1.371-1.371h1.371l0.457-0.457 0.457-0.914 0.457 0.914 0.457 0.457h0.914l-0.457 0.914zM26.057 20.571h-0.914v0.914h0.914v-0.914zM26.057 22.857h-0.914v0.914h0.914v-0.914zM27.429 21.486h-1.371v1.371h1.371v-1.371zM25.143 21.486h-0.914v1.371h0.914v-1.371zM22.4 26.514h-0.914v0.914h0.914v-0.914zM22.4 28.343h-0.914v1.371h0.914v-1.371zM23.314 27.429h-0.914v0.914h0.914v-0.914zM21.486 27.429h-1.371v0.914h1.371v-0.914zM16 24.229h-0.914v0.914h0.914v-0.914zM16 26.514h-0.914v0.914h0.914v-0.914zM16.914 25.143h-0.914v1.371h0.914v-1.371zM15.086 25.143h-1.371v1.371h1.371v-1.371zM5.943 5.943h-1.371v1.371h1.371v-1.371zM5.943 8.229h-1.371v0.914h1.371v-0.914zM6.857 7.314h-0.914v0.914h0.914v-0.914zM4.571 7.314h-0.914v0.914h0.914v-0.914z"></path>
<path fill="#212121" style="fill: var(--color1, #212121)" d="M24.686 14.171l-1.371-0.914-0.914 0.457-1.371 0.914-1.829 1.371-1.371-0.457c2.677-0.975 4.555-3.498 4.555-6.459 0-3.787-3.070-6.857-6.857-6.857-0.316 0-0.628 0.021-0.933 0.063l0.036-0.004c-3.787 0-6.857 3.070-6.857 6.857 0 1.551 0.515 2.983 1.384 4.132l-0.012-0.017h-3.2l-3.2 1.371-1.829 0.914c-0.559 0.324-0.929 0.919-0.929 1.6 0 1.018 0.825 1.843 1.843 1.843 0.336 0 0.652-0.090 0.923-0.248l-0.009 0.005 1.371-0.914 2.286-0.914h1.371l-6.857 6.857c-0.25 0.31-0.401 0.709-0.401 1.143s0.151 0.833 0.404 1.146l-0.003-0.004c0.31 0.25 0.709 0.401 1.143 0.401s0.833-0.151 1.146-0.404l-0.004 0.003 1.371-1.371 1.829-1.371 0.914 0.914-3.2 3.2c-0.25 0.31-0.401 0.709-0.401 1.143s0.151 0.833 0.404 1.146l-0.003-0.004c0.31 0.25 0.709 0.401 1.143 0.401s0.833-0.151 1.146-0.404l-0.004 0.003 4.571-4.571 5.029-5.486 3.657 0.457h0.457l3.2-2.286 1.371-1.371v-2.286zM2.286 17.829h-0.914c-0.19-0.168-0.31-0.413-0.31-0.686s0.119-0.517 0.309-0.685l0.001-0.001 1.371-0.457 0.457 0.914v0.457l-0.914 0.457zM5.486 16l-1.371 0.914-0.457-0.914v-0.457l1.829-0.914v1.371zM20.571 9.143l-0.457 2.743-4.114-1.829-0.914-1.371 1.371-5.029c2.743 0.914 4.114 3.2 4.114 5.486zM9.143 9.143c0.235-3.088 2.799-5.505 5.927-5.505 0.167 0 0.332 0.007 0.495 0.020l-0.021-0.001-1.371 4.571c-0.914 0-1.829 0.914-1.829 1.829 0.137 0.886 0.894 1.557 1.808 1.557 0.556 0 1.054-0.248 1.39-0.64l0.002-0.002 4.114 1.829c-1.098 1.316-2.738 2.147-4.573 2.147-3.234 0-5.864-2.582-5.941-5.797l-0-0.007zM15.086 10.057l-0.914 0.914-0.914-0.914 0.914-0.914 0.914 0.914zM2.286 25.143h-0.457c-0.252 0-0.457-0.205-0.457-0.457s0.205-0.457 0.457-0.457v0l0.914-0.914 0.457 0.914-0.914 0.914zM5.486 28.8h-0.457c-0.252 0-0.457-0.205-0.457-0.457s0.205-0.457 0.457-0.457v0l0.914-0.914 0.914 0.914-1.371 0.914zM9.143 25.6l-1.829 1.371h-0.457l-0.457-0.457 1.829-1.829v-0.914l-1.829-1.829h-0.457l-1.829 1.371-0.914-0.914 2.743-2.286 4.114 4.571-0.914 0.914zM16 18.286c-0.252 0-0.457 0.205-0.457 0.457v0l-4.571 5.029-4.571-4.114 2.743-3.2c0.252 0 0.457-0.205 0.457-0.457s-0.205-0.457-0.457-0.457v0h-2.286v-1.371h3.2c1.232 1.194 2.915 1.93 4.769 1.93 0.415 0 0.821-0.037 1.216-0.107l-0.042 0.006h0.457l2.286 1.371v0.457l0.457 0.914-3.2-0.457zM20.114 18.743l-0.457-1.829 1.371-0.914 0.457 0.457 0.457 0.914-1.829 1.371zM23.771 15.543l-0.914 0.914-0.914-1.371 0.914-0.457h0.457c0.279 0.16 0.465 0.456 0.465 0.796 0 0.042-0.003 0.083-0.008 0.123l0-0.005z"></path>
<path fill="#212121" style="fill: var(--color1, #212121)" d="M13.714 18.743l-2.286-2.286h-0.914l-1.829 2.286c-0.039 0.066-0.061 0.144-0.061 0.229s0.023 0.163 0.062 0.231l-0.001-0.002 1.829 2.286c0 0.252 0.205 0.457 0.457 0.457s0.457-0.205 0.457-0.457v0l2.286-2.286c0.039-0.066 0.061-0.144 0.061-0.229s-0.023-0.163-0.062-0.231l0.001 0.002zM10.971 20.114l-1.371-1.371 1.371-1.371 1.371 1.371-1.371 1.371zM17.371 5.029l-0.457 0.914s1.829 0.457 1.829 2.286h0.914c0-1.829-1.829-2.743-2.286-3.2zM19.657 9.143h-0.914v1.371h0.914v-1.371z"></path>
</symbol>
<symbol id="client1" viewBox="0 0 28 32">
<path fill="#afb1b8" style="fill: var(--color3, #afb1b8)" d="M4.085 0l4.766 4.766h-8.851v21.787h23.149v-8.17l4.766 4.085v-22.468h-23.83zM23.149 17.702l-13.617-12.936h13.617v12.936zM19.064 23.149h-15.66v-14.979h1.362v14.298h14.298v0.681zM7.489 29.277l-0.681 1.362-0.681-1.362h-0.681l0.681 1.362v1.362h0.681v-1.362l0.681-1.362zM8.17 32v-0.681h0.681l0.681 0.681-0.681-2.723h-0.681l-0.681 2.723h0.681zM8.851 29.957v0.681h-0.681l0.681-0.681zM10.894 30.638v0.681l0.681 0.681 0.681-0.681v0.681h0.681l-1.362-1.362 0.681-0.681c0.057-0.098 0.091-0.215 0.091-0.34s-0.034-0.243-0.093-0.344l0.002 0.003h-1.362v1.362zM11.574 31.319h-0.681l0.681-0.681v0.681zM15.66 31.319v-0.681h-0.681v0.681h-0.681v-1.362h1.362v-0.681h-1.362l-0.681 0.681v1.362l0.681 0.681h0.681l0.681-0.681zM17.702 31.319v-1.362c0-0.376-0.305-0.681-0.681-0.681v0h-0.681v0.681l-0.681 0.681 1.362 1.362 0.681-0.681zM17.702 29.957v1.362h-1.362v-1.362h1.362z"></path>
</symbol>
<symbol id="client2" viewBox="0 0 25 32">
<path fill="#afb1b8" style="fill: var(--color3, #afb1b8)" d="M10.462 1.846h-0.615c-0.092-0.002-0.2-0.003-0.308-0.003s-0.216 0.001-0.324 0.003l0.016-0c-2.462 0-4.923 0.615-6.769 1.846v13.538h0.615c2.006-0.705 4.323-1.15 6.731-1.23l0.038-0.001v1.846h-1.231c-2.974 0.258-5.694 1.139-8.097 2.512l0.097-0.051v-17.846c2.643-1.548 5.82-2.462 9.21-2.462 0.007 0 0.014 0 0.022 0h-0.001c1.154 0.129 2.197 0.345 3.203 0.648l-0.126-0.033v1.846l-1.846-0.615h-0.615zM13.538 3.692h1.231c3.397-0.026 6.575-0.936 9.324-2.511l-0.093 0.049v17.231c-2.526 1.383-5.534 2.196-8.732 2.196-1.265 0-2.501-0.127-3.694-0.37l0.119 0.020v-17.231c0.501 0.215 1.115 0.425 1.747 0.593l0.099 0.022zM22.154 3.692h-0.615l-1.231 0.615c-1.577 0.426-3.387 0.67-5.254 0.67-0.533 0-1.062-0.020-1.585-0.059l0.070 0.004h-0.615v14.154h1.846c2.703-0.039 5.24-0.717 7.476-1.89l-0.091 0.044v-13.538z"></path>
<path fill="#afb1b8" style="fill: var(--color3, #afb1b8)" d="M1.846 25.846c-0.088-0.052-0.194-0.082-0.308-0.082s-0.219 0.031-0.311 0.084l0.003-0.002h-0.615c-0.274 0.126-0.489 0.341-0.612 0.608l-0.003 0.008v3.077h0.615v0.615h0.615c0.376-0.215 0.626-0.614 0.626-1.072 0-0.056-0.004-0.111-0.011-0.165l0.001 0.006h-0.615v0.615c-0.088 0.052-0.194 0.082-0.308 0.082s-0.219-0.031-0.311-0.084l0.003 0.002v-3.077c0.088-0.052 0.194-0.082 0.308-0.082s0.219 0.031 0.311 0.084l-0.003-0.002v0.615h0.615v-0.615c0.025-0.092 0.039-0.198 0.039-0.308s-0.014-0.215-0.041-0.316l0.002 0.009zM5.538 25.846c-0.177-0.104-0.389-0.165-0.615-0.165s-0.439 0.061-0.621 0.168l0.006-0.003h-0.615v3.692l0.615 0.615c0.092 0.025 0.198 0.039 0.308 0.039s0.215-0.014 0.316-0.041l-0.009 0.002 0.615-0.615c0.025-0.092 0.039-0.198 0.039-0.308s-0.014-0.215-0.041-0.316l0.002 0.009v-3.077zM4.923 28.923c0.052 0.088 0.082 0.194 0.082 0.308s-0.031 0.219-0.084 0.311l0.002-0.003c-0.088 0.052-0.194 0.082-0.308 0.082s-0.219-0.031-0.311-0.084l0.003 0.002c-0.052-0.088-0.082-0.194-0.082-0.308s0.031-0.219 0.084-0.311l-0.002 0.003v-2.462c0.088-0.052 0.194-0.082 0.308-0.082s0.219 0.031 0.311 0.084l-0.003-0.002v2.462zM9.846 30.154v-4.308h-0.615l-0.615 1.846-0.615-1.846h-0.615v4.308h0.615v-2.462l0.615 1.231 0.615-1.231v2.462h0.615zM13.538 25.846h-1.846v4.308h0.615v-1.846h1.231v-0.615c0.040-0.185 0.062-0.398 0.062-0.615s-0.023-0.43-0.066-0.635l0.004 0.020v-0.615zM12.923 27.077v0.615h-0.615v-1.231h0.615v0.615zM16.615 25.846h-0.615l-1.231 4.308h0.615l0.615-1.231h0.615v1.231h0.615l-0.615-4.308zM16 28.308v-1.231l0.615 1.231h-0.615zM20.308 28.308l-1.231-2.462v1.846h0.615l0.615 2.462h0.615v-4.308h-0.615v2.462zM24 25.846l-0.615 1.846-0.615-1.846h-0.615l1.231 2.462v1.846h0.615v-1.846l0.615-2.462h-0.615zM0 31.385v0.615h0.615v-1.231h-0.615v0.615zM2.462 30.769l-0.615 1.231h1.231l-0.615-1.231zM4.923 31.385v0.615l-0.615-0.615h1.231l-0.615-0.615-0.615 0.615v0.615c0.088 0.052 0.194 0.082 0.308 0.082s0.219-0.031 0.311-0.084l-0.003 0.002h0.615v-0.615h-0.615zM7.385 30.769v0zM9.231 30.769v0zM11.692 31.385l-0.615-0.615v0.615l0.615 0.615v-0.615zM13.538 31.385v-0.615h-0.615v1.231h0.615v-0.615zM17.846 31.385h-0.615v0h0.615v0zM19.692 31.385h0.615v-0.615h-0.615v0.615zM22.154 31.385v-0.615h-0.615v0.615h0.615v0zM22.154 31.385v0zM24 31.385h0.615v-0.615h-0.615v0.615z"></path>
</symbol>
<symbol id="client3" viewBox="0 0 34 32">
<path fill="#afb1b8" style="fill: var(--color3, #afb1b8)" d="M5.333 31.238h0.762l-0.762 0.762h-1.524v-0.762h-0.762c-0.128-0.219-0.204-0.481-0.204-0.762s0.076-0.543 0.208-0.769l-0.004 0.007h0.762v-0.762c0.227-0.083 0.489-0.131 0.762-0.131s0.535 0.048 0.778 0.136l-0.016-0.005 0.762 0.762h-0.762c-0.114-0.031-0.246-0.048-0.381-0.048s-0.267 0.018-0.392 0.051l0.011-0.002h-0.762v1.524h1.524zM10.667 30.476v0.762h-0.762v0.762h-1.524l-0.762-0.762v-1.524l0.762-0.762h1.524v0.762c0.34 0.156 0.606 0.422 0.758 0.752l0.004 0.009zM9.905 30.476v-0.762c-0.109-0.064-0.241-0.102-0.381-0.102s-0.272 0.038-0.385 0.104l0.004-0.002h-1.524v1.524c0.109 0.064 0.241 0.102 0.381 0.102s0.272-0.038 0.385-0.104l-0.004 0.002h1.524v-0.762zM13.714 31.238l1.524-2.286v0.762l-1.524 1.524-1.524-1.524v2.286-3.048h0.762l0.762 2.286zM17.524 30.476v1.524-3.048h1.524v1.524l-0.762 0.762-0.762-0.762zM17.524 30.476h1.524v-0.762h-1.524v0.762zM23.619 32h-0.762v-0.762h-1.524l-0.762 0.762 0.762-3.048h0.762l1.524 3.048zM21.333 31.238h0.762v-1.524l-0.762 1.524zM25.143 28.952l1.524 2.286v-2.286h0.762v3.048h-0.762l-1.524-2.286v2.286-3.048zM30.476 30.476v1.524h-0.762v-1.524l-0.762-1.524h0.762v1.524c0.114-0.031 0.246-0.048 0.381-0.048s0.267 0.018 0.392 0.051l-0.011-0.002zM13.714 24.381c3.048-0.762 5.333-2.286 6.857-4.571 2.286-2.286 3.048-5.333 3.048-7.619l-3.048-3.048c0 3.048 0 6.095-1.524 8.381-0.762 3.048-3.048 5.333-5.333 6.857z"></path>
<path fill="#afb1b8" style="fill: var(--color3, #afb1b8)" d="M12.19 24.381c3.048-1.524 5.333-3.81 6.095-6.857 1.524-3.048 1.524-6.095 0.762-9.143l-4.571-3.81c1.404 2.399 2.234 5.283 2.234 8.36 0 4.431-1.72 8.461-4.528 11.458l0.009-0.009zM27.429 15.238c-0.762 3.048-2.286 5.333-5.333 7.619l-2.286 1.524 5.333-3.048 3.81-4.571-1.524-1.524z"></path>
<path fill="#afb1b8" style="fill: var(--color3, #afb1b8)" d="M26.667 14.476l-2.286-2.286c0 3.048-1.524 5.333-3.048 7.619s-3.048 3.81-6.095 4.571h2.286l6.095-3.81 3.048-6.095zM12.952 3.048l-3.048-2.286c-3.048 0.762-5.333 2.286-6.857 4.571-1.524 1.524-2.286 4.571-2.286 6.857 0 3.048 0.762 5.333 3.048 7.619 1.524 2.286 4.571 3.81 7.619 4.571 3.048-3.048 4.571-6.857 4.571-10.667s-0.762-7.619-3.048-10.667zM33.524 14.476c0-3.81-1.524-6.857-3.81-9.143-2.688-2.425-6.265-3.908-10.19-3.908-1.809 0-3.545 0.315-5.155 0.894l0.106-0.033 18.286 16.762 0.762-4.571z"></path>
</symbol>
<symbol id="client4" viewBox="0 0 65 32">
<path fill="#2196f3" style="fill: var(--color2, #2196f3)" d="M9.905 9.905c-1.524 0-3.048 1.524-3.048 3.048s1.524 3.048 3.048 3.048c2.286 0 3.048-1.524 3.048-3.048s-0.762-3.048-3.048-3.048zM34.286 9.143c0-2.286-0.762-4.571-2.286-6.095l-6.857-2.286c-3.048 0-5.333 0.762-6.857 2.286-2.286 1.524-3.048 3.81-3.048 6.095v12.19s19.048-1.524 19.048-12.19zM0 25.905c0 1.524 0.762 3.048 2.286 3.81l4.571 1.524 4.571-1.524c1.524-0.762 1.524-2.286 1.524-3.81v-9.143s-12.952 1.524-12.952 9.143zM6.857 27.429l-1.524-0.762v-0.762l-0.762-0.762 0.762-0.762h3.048c0.161 0.238 0.258 0.532 0.258 0.848 0 0.661-0.421 1.223-1.009 1.435l-0.011 0.003-0.762 0.762zM19.81 25.905h-0.762v1.524h-0.762v-3.048h2.286v0.762h-1.524v0.762h0.762zM23.619 25.905l-0.762 0.762c-0.156 0.34-0.422 0.606-0.752 0.758l-0.009 0.004h-0.762l-0.762-0.762v-1.524c0.267-0.466 0.761-0.775 1.327-0.775 0.069 0 0.138 0.005 0.205 0.014l-0.008-0.001h0.762v0.762l0.762 0.762zM22.857 25.905v-0.762h-1.524v1.524l0.762 0.762 0.762-0.762v-0.762zM25.143 26.667v-0.762h-0.762l-0.762-0.762v-0.762h2.286v0.762h-1.524l0.762 0.762h0.762v1.524h-2.286v-0.762h0.762l0.762 0.762v-0.762zM28.952 25.143h-0.762v2.286h-0.762v-2.286h-0.762v-0.762h2.286v0.762zM31.238 25.905h-0.762v1.524h-0.762v-3.048h2.286v0.762h-1.524v0.762h0.762zM33.524 26.667h-0.762v0.762h-0.762v-3.048h2.286v1.524h-0.762l0.762 1.524h-0.762v-0.762zM32.762 25.905h0.762v-0.762h-0.762v0.762zM36.571 26.667v0.762h-0.762v-3.048h2.286v0.762h0.762l-1.524 1.524h-0.762zM36.571 25.905h1.524v-0.762h-1.524v0.762zM41.143 25.905h-1.524v1.524h-0.762v-3.048h2.286v0.762h-1.524v0.762h1.524zM44.19 25.143h-0.762v2.286h-0.762v-2.286h-1.524v-0.762h3.048v0.762zM46.476 25.905h-1.524v1.524h-0.762v-3.048h2.286v0.762h-1.524v0.762h1.524zM48 26.667v0.762h-0.762v-3.048h2.286v1.524h-0.762l0.762 1.524h-0.762l-0.762-0.762zM48 25.905h0.762v-0.762h-0.762v0.762zM51.81 26.667l-0.762-0.762h-0.762v-1.524h1.524l0.762 0.762h-1.524v0.762h0.762l0.762 0.762-0.762 0.762h-1.524l-0.762-0.762h0.762l0.762 0.762 0.762-0.762z"></path>
</symbol>
<symbol id="client5" viewBox="0 0 43 32">
<path fill="#afb1b8" style="fill: var(--color3, #afb1b8)" d="M3.404 26.553v1.362h-3.404v-4.085h2.043l0.681 0.681h0.681v1.362h-0.681l0.681 0.681zM0.681 25.872h1.362l0.681-0.681-0.681-0.681h-1.362v1.362zM2.043 27.234h0.681v-0.681h-2.043v0.681h1.362zM7.489 27.915l-1.362-1.362h-0.681v1.362h-0.681v-4.085h2.043l1.362 1.362v0.681l-1.362 0.681 1.362 1.362h-0.681zM5.447 25.872h1.362l0.681-0.681h-0.681v-0.681h-1.362v1.362zM12.255 27.234h-2.043v0.681h-1.362l2.043-4.085h0.681l2.043 4.085h-1.362v-0.681zM12.255 26.553l-0.681-1.362-0.681 1.362h1.362zM18.383 27.915h-0.681l-2.043-2.723v2.723h-0.681v-4.085h0.681l2.043 2.723v-2.723h0.681v4.085zM23.83 27.234l-0.681 0.681h-2.723v-4.085h1.362l1.362 0.681 0.681 0.681c0.172 0.293 0.274 0.645 0.274 1.021s-0.102 0.728-0.279 1.031l0.005-0.010zM22.468 27.234l0.681-1.362-1.362-1.362h-0.681v2.723h1.362zM12.936 0.681s11.574 4.085 11.574 10.213v9.532s-12.255-4.085-11.574-9.532v-10.213zM34.723 18.383c2.723-1.362 5.447-2.723 8.17-2.723v-3.404c-3.404 1.362-6.128 3.404-8.17 6.128z"></path>
<path fill="#afb1b8" style="fill: var(--color3, #afb1b8)" d="M33.362 19.064c2.043-3.404 5.447-6.128 9.532-7.489v-8.851s-17.021 6.128-17.021 14.298v14.298l2.043-0.681v-1.362c0.681-4.085 2.723-7.489 5.447-10.213z"></path>
<path fill="#afb1b8" style="fill: var(--color3, #afb1b8)" d="M32 24.511l0.681-2.723c-1.988 2.155-3.255 5.002-3.403 8.141l-0.001 0.029 3.404-1.362-0.681-4.085zM32.681 24.511v4.085c4.766-2.723 10.213-6.809 10.213-11.574-3.404 0-6.809 1.362-8.851 3.404l-1.362 4.085z"></path>
</symbol>
<symbol id="client6" viewBox="0 0 67 32">
<path fill="#afb1b8" style="fill: var(--color3, #afb1b8)" d="M33.422 14.933v-4.267l1.422-0.711h1.422l0.711 1.422v0.711h-1.422v-1.422h-0.711v4.267h0.711v-1.422h1.422v0.711l-0.711 0.711-1.422 0.711-1.422-0.711zM38.4 14.933v-4.978h2.844l0.711 1.422v2.133l-0.711 1.422-1.422 0.711-1.422-0.711zM40.533 14.933v-4.267h-0.711l-0.711 0.711v2.844l0.711 0.711c0.102 0.060 0.225 0.095 0.356 0.095s0.254-0.035 0.359-0.097l-0.003 0.002zM43.378 9.956h1.422l0.711 4.267 0.711-4.267h1.422v5.689h-0.711v-4.267l-0.711 4.267h-0.711l-1.422-4.267v4.267h-0.711v-5.689zM49.067 9.956h2.133c1.422 0 1.422 0.711 1.422 1.422 0 1.422 0 1.422-1.422 1.422h-0.711v2.844h-1.422v-5.689zM51.2 12.089h0.711v-1.422h-1.422v1.422h0.711zM54.756 9.956h1.422l1.422 5.689h-1.422v-1.422h-1.422v1.422h-1.422l1.422-5.689zM55.467 13.511v-2.133l-0.711 2.133h0.711zM58.311 9.956h0.711l2.133 3.556v-3.556h0.711v5.689h-0.711l-1.422-3.556v3.556h-1.422v-5.689zM64 13.511l-1.422-3.556h1.422l0.711 2.133 0.711-2.133h1.422l-1.422 3.556v2.133h-1.422v-2.133zM35.556 18.489h-0.711v2.133h-0.711v-2.133h1.422zM38.4 20.622l-0.711-0.711h-1.422v0.711h-0.711l1.422-2.133h0.711l0.711 2.133zM36.978 19.911h0.711v-1.422h-0.711v1.422zM40.533 20.622h0.711v-1.422h0.711v1.422c-0.107 0.019-0.23 0.030-0.356 0.030s-0.249-0.011-0.368-0.032l0.013 0.002h-1.422l-0.711-0.711v-0.711l0.711-0.711c0.212-0.077 0.456-0.122 0.711-0.122s0.499 0.045 0.726 0.127l-0.015-0.005c0.107-0.029 0.229-0.045 0.356-0.045s0.249 0.016 0.365 0.047l-0.010-0.002h-0.711c-0.107-0.029-0.229-0.045-0.356-0.045s-0.249 0.016-0.365 0.047l0.010-0.002h-0.711v2.133c0.102 0.060 0.225 0.095 0.356 0.095s0.254-0.035 0.359-0.097l-0.003 0.002zM44.8 20.622h-0.711v-2.133h0.711v2.133zM47.644 20.622h-0.711v-2.133h0.711v2.133zM49.067 18.489l1.422 1.422v-1.422h0.711v2.133h-0.711l-1.422-2.133v2.133h-0.711v-2.133h0.711zM54.044 18.489h-1.422v0.711h1.422v0.711h-1.422v0.711h-0.711v-2.133h2.133zM10.667 2.133l18.489 4.267v15.644l-18.489-4.267v-15.644zM9.956 0.711v17.778l20.622 4.978v-17.778l-20.622-4.978z"></path>
<path fill="#afb1b8" style="fill: var(--color3, #afb1b8)" d="M20.622 32l-20.622-4.978v-18.489l20.622 5.689v17.778z"></path>
<path fill="#afb1b8" style="fill: var(--color3, #afb1b8)" d="M9.956 1.422l17.778 4.978-7.111 6.4-18.489-4.267 7.822-7.111zM9.956 0.711l-9.956 7.822 20.622 5.689 9.956-8.533-20.622-4.978zM22.044 30.578l8.533-7.111-8.533-2.133v9.244z"></path>
</symbol>
<symbol id="clock" viewBox="0 0 32 32">
<path fill="#212121" style="fill: var(--color1, #212121)" d="M31.297 15.301c-0.002-8.452-6.855-15.303-15.308-15.301s-15.303 6.855-15.301 15.308c0.001 6.658 4.307 12.551 10.649 14.576 0.061 0.019 0.124 0.029 0.187 0.029 0.121-0 0.239-0.032 0.342-0.094 0.135-0.080 0.236-0.207 0.283-0.356l3.865-12.25c1.057-0.005 1.909-0.866 1.903-1.923s-0.866-1.909-1.923-1.903c-0.284 0.001-0.565 0.067-0.82 0.191l-5.106-5.107c-0.253-0.245-0.657-0.238-0.902 0.016-0.239 0.247-0.239 0.639 0 0.886l5.103 5.109c-0.392 0.799-0.168 1.764 0.536 2.309l-3.683 11.673c-7.278-2.681-11.004-10.754-8.323-18.032s10.754-11.004 18.032-8.323 11.004 10.754 8.323 18.032c-1.31 3.556-4.001 6.431-7.462 7.973l-0.398-1.874c-0.073-0.344-0.411-0.565-0.756-0.492-0.109 0.023-0.209 0.074-0.292 0.148l-3.837 3.426c-0.263 0.234-0.287 0.637-0.052 0.9 0.076 0.085 0.174 0.149 0.283 0.184l4.899 1.563c0.335 0.108 0.694-0.077 0.802-0.412 0.034-0.106 0.040-0.219 0.017-0.328l-0.391-1.839c5.664-2.388 9.342-7.942 9.329-14.089zM15.992 14.664c0.352 0 0.638 0.286 0.638 0.638s-0.286 0.638-0.638 0.638c-0.352 0-0.638-0.285-0.638-0.638s0.285-0.638 0.638-0.638zM18.093 29.528l2.184-1.948 0.603 2.84-2.787-0.892z"></path>
<path fill="#2196f3" style="fill: var(--color2, #2196f3)" d="M15.543 3.2v1.371c0 0.457 0 0.457 0.457 0.457s0.457 0 0.457-0.457v-1.371c0-0.457 0-0.457-0.457-0.457s-0.457 0-0.457 0.457zM3.657 14.629c0 0-0.457 0.457-0.457 0.457 0 0.457 0.457 0.914 0.457 0.914h1.371c0.457 0 0.914-0.457 0.914-0.914 0 0-0.457-0.457-0.914-0.457h-1.371zM27.886 16c0.457 0 0.914-0.457 0.914-0.914 0 0-0.457-0.457-0.914-0.457h-0.914c-0.457 0-0.914 0.457-0.914 0.457 0 0.457 0.457 0.914 0.914 0.914h0.914z"></path>
</symbol>
<symbol id="diagram" viewBox="0 0 32 32">
<path fill="#2196f3" style="fill: var(--color2, #2196f3)" d="M15.086 15.086h0.914v4.571h-0.914v-4.571zM19.2 16.914h0.914v2.743h-0.914v-2.743zM10.514 18.743h1.371v0.914h-1.371v-0.914zM7.314 18.286h1.371v1.371h-1.371v-1.371z"></path>
<path fill="#212121" style="fill: var(--color1, #212121)" d="M1.599 28.291h25.587c0.883 0 1.599-0.716 1.599-1.599v-2.132c0-0.883-0.716-1.599-1.599-1.599h-0.533v-13.293l3.028-2.868c0.703 0.346 1.553 0.136 2.013-0.499s0.396-1.508-0.152-2.068-1.42-0.644-2.065-0.198c-0.644 0.446-0.873 1.292-0.542 2.002l-2.281 2.163v-1.23c0-0.883-0.716-1.599-1.599-1.599h-21.322c-0.883 0-1.599 0.716-1.599 1.599v15.992h-0.533c-0.883 0-1.599 0.716-1.599 1.599v2.132c0 0.883 0.716 1.599 1.599 1.599zM30.384 4.837c0.294 0 0.533 0.239 0.533 0.533s-0.239 0.533-0.533 0.533c-0.294 0-0.533-0.239-0.533-0.533s0.239-0.533 0.533-0.533zM3.198 6.969c0-0.294 0.239-0.533 0.533-0.533h21.322c0.294 0 0.533 0.239 0.533 0.533v2.239l-1.066 1.013v-2.186c0-0.294-0.239-0.533-0.533-0.533h-19.19c-0.294 0-0.533 0.239-0.533 0.533v13.326c0 0.294 0.239 0.533 0.533 0.533h19.19c0.294 0 0.533-0.239 0.533-0.533v-9.674l1.066-1.010v12.284h-22.388v-15.992zM7.996 13.899c-0.721-0.002-1.354 0.478-1.546 1.174s0.105 1.433 0.725 1.801c0.62 0.368 1.41 0.276 1.928-0.226l1.853 0.93c0.215 0.108 0.476 0.057 0.636-0.123l3.939-4.431 3.872 2.901c0.208 0.156 0.498 0.139 0.686-0.039l3.365-3.188v8.131h-18.124v-12.26h18.124v2.66l-3.771 3.572-3.904-2.927c-0.222-0.166-0.534-0.135-0.718 0.072l-3.993 4.493-1.493-0.746c0.011-0.064 0.018-0.129 0.020-0.193 0-0.883-0.716-1.599-1.599-1.599zM8.529 15.498c0 0.294-0.239 0.533-0.533 0.533s-0.533-0.239-0.533-0.533c0-0.294 0.239-0.533 0.533-0.533s0.533 0.239 0.533 0.533zM11.727 24.027h5.331v0.533c0 0.294-0.239 0.533-0.533 0.533h-4.264c-0.294 0-0.533-0.239-0.533-0.533v-0.533zM1.066 24.56c0-0.294 0.239-0.533 0.533-0.533h9.062v0.533c0 0.883 0.716 1.599 1.599 1.599h4.264c0.883 0 1.599-0.716 1.599-1.599v-0.533h9.062c0.294 0 0.533 0.239 0.533 0.533v2.132c0 0.294-0.239 0.533-0.533 0.533h-25.587c-0.294 0-0.533-0.239-0.533-0.533v-2.132z"></path>
</symbol>
<symbol id="facebook" viewBox="0 0 32 32">
<path d="M21.329 5.313h2.921v-5.088c-0.504-0.069-2.237-0.225-4.256-0.225-4.212 0-7.097 2.649-7.097 7.519v4.481h-4.648v5.688h4.648v14.312h5.699v-14.311h4.46l0.708-5.688h-5.169v-3.919c0.001-1.644 0.444-2.769 2.735-2.769z"></path>
</symbol>
<symbol id="instagram" viewBox="0 0 32 32">
<path  d="M31.969 9.408c-0.075-1.7-0.35-2.869-0.744-3.882-0.406-1.075-1.032-2.038-1.851-2.838-0.8-0.813-1.769-1.444-2.832-1.844-1.019-0.394-2.182-0.669-3.882-0.744-1.713-0.081-2.257-0.1-6.601-0.1s-4.888 0.019-6.595 0.094c-1.7 0.075-2.869 0.35-3.882 0.744-1.075 0.406-2.038 1.031-2.838 1.85-0.813 0.8-1.444 1.769-1.844 2.832-0.394 1.019-0.669 2.182-0.744 3.882-0.081 1.713-0.1 2.257-0.1 6.601s0.019 4.888 0.094 6.595c0.075 1.7 0.35 2.869 0.744 3.882 0.406 1.075 1.038 2.038 1.85 2.838 0.8 0.813 1.769 1.444 2.832 1.844 1.019 0.394 2.182 0.669 3.882 0.744 1.706 0.075 2.25 0.094 6.595 0.094s4.888-0.019 6.595-0.094c1.7-0.075 2.869-0.35 3.882-0.744 2.151-0.832 3.851-2.532 4.682-4.682 0.394-1.019 0.669-2.182 0.744-3.882 0.075-1.707 0.094-2.251 0.094-6.595s-0.006-4.888-0.081-6.595zM29.087 22.473c-0.069 1.563-0.331 2.407-0.55 2.969-0.538 1.394-1.644 2.5-3.038 3.038-0.563 0.219-1.413 0.481-2.969 0.55-1.688 0.075-2.194 0.094-6.464 0.094s-4.782-0.019-6.464-0.094c-1.563-0.069-2.407-0.331-2.969-0.55-0.694-0.256-1.325-0.663-1.838-1.194-0.531-0.519-0.938-1.144-1.194-1.838-0.219-0.563-0.481-1.413-0.55-2.969-0.075-1.688-0.094-2.194-0.094-6.464s0.019-4.782 0.094-6.464c0.069-1.563 0.331-2.407 0.55-2.969 0.256-0.694 0.663-1.325 1.2-1.838 0.519-0.531 1.144-0.938 1.838-1.194 0.563-0.219 1.413-0.481 2.969-0.55 1.688-0.075 2.194-0.094 6.464-0.094 4.276 0 4.782 0.019 6.464 0.094 1.563 0.069 2.407 0.331 2.969 0.55 0.694 0.256 1.325 0.662 1.838 1.194 0.531 0.519 0.938 1.144 1.194 1.838 0.219 0.563 0.481 1.413 0.55 2.969 0.075 1.688 0.094 2.194 0.094 6.464s-0.019 4.77-0.094 6.458z"></path>
<path  d="M16 8c-4.8 0-8 3.2-8 8s3.2 8 8 8c4.8 0 8-3.2 8-8s-3.2-8-8-8zM16 20.8c-3.2 0-4.8-1.6-4.8-4.8s1.6-4.8 4.8-4.8c3.2 0 4.8 1.6 4.8 4.8s-1.6 4.8-4.8 4.8zM27.2 8c0 0-1.6 1.6-3.2 1.6 0 0-1.6-1.6-1.6-1.6 0-1.6 1.6-3.2 1.6-3.2 1.6 0 3.2 1.6 3.2 3.2z"></path>
</symbol>
<symbol id="linkedin" viewBox="0 0 32 32">
<path d="M32 32v0 0-11.2c0-6.4-1.6-11.2-8-11.2-3.2 0-4.8 1.6-6.4 3.2v0-1.6h-6.4v20.8h6.4v-11.2c0-1.6 1.6-4.8 4.8-4.8s3.2 3.2 3.2 4.8v11.2h6.4zM0 11.2h6.4v20.8h-6.4v-20.8zM3.2 0c-1.6 0-3.2 1.6-3.2 3.2 0 3.2 1.6 4.8 3.2 4.8 3.2 0 4.8-1.6 4.8-4.8 0-1.6-1.6-3.2-4.8-3.2v0z"></path>
</symbol>
<symbol id="mail" viewBox="0 0 43 32">
<path d="M38.667 0h-34.667c-2.206 0-4 1.794-4 4v24c0 2.206 1.794 4 4 4h34.667c2.206 0 4-1.794 4-4v-24c0-2.206-1.794-4-4-4zM38.667 2.667c0.181 0 0.353 0.038 0.511 0.103l-17.844 15.466-17.844-15.466c0.158-0.066 0.33-0.103 0.511-0.103h34.667zM38.667 29.333h-34.667c-0.736 0-1.333-0.598-1.333-1.333v-22.413l17.793 15.421c0.251 0.217 0.563 0.326 0.874 0.326s0.622-0.108 0.874-0.326l17.793-15.421v22.413c0 0.736-0.598 1.333-1.333 1.333z"></path>
</symbol>
<symbol id="smartphone" viewBox="0 0 20 32">
<path  d="M17 0h-14c-1.654 0-3 1.346-3 3v26c0 1.654 1.346 3 3 3h14c1.654 0 3-1.346 3-3v-26c0-1.654-1.346-3-3-3zM3 2h14c0.552 0 1 0.448 1 1v21h-16v-21c0-0.552 0.448-1 1-1zM17 30h-14c-0.552 0-1-0.448-1-1v-3h16v3c0 0.552-0.448 1-1 1z"></path>
<path  d="M4.707 27.478c0.391 0.365 0.391 0.956 0 1.321s-1.024 0.365-1.414 0c-0.391-0.365-0.391-0.956 0-1.321s1.024-0.365 1.414 0z"></path>
</symbol>
<symbol id="twitter" viewBox="0 0 32 32">
<path  d="M32 6.078c-1.19 0.522-2.458 0.868-3.78 1.036 1.36-0.812 2.398-2.088 2.886-3.626-1.268 0.756-2.668 1.29-4.16 1.588-1.204-1.282-2.92-2.076-4.792-2.076-3.632 0-6.556 2.948-6.556 6.562 0 0.52 0.044 1.020 0.152 1.496-5.454-0.266-10.28-2.88-13.522-6.862-0.566 0.982-0.898 2.106-0.898 3.316 0 2.272 1.17 4.286 2.914 5.452-1.054-0.020-2.088-0.326-2.964-0.808 0 0.020 0 0.046 0 0.072 0 3.188 2.274 5.836 5.256 6.446-0.534 0.146-1.116 0.216-1.72 0.216-0.42 0-0.844-0.024-1.242-0.112 0.85 2.598 3.262 4.508 6.13 4.57-2.232 1.746-5.066 2.798-8.134 2.798-0.538 0-1.054-0.024-1.57-0.090 2.906 1.874 6.35 2.944 10.064 2.944 12.072 0 18.672-10 18.672-18.668 0-0.29-0.010-0.57-0.024-0.848 1.302-0.924 2.396-2.078 3.288-3.406z"></path>
</symbol>
</defs>
</svg>
